<?xml version="1.0" encoding="UTF-8" standalone="no"?>
<!-- Generator: Adobe Illustrator 23.0.3, SVG Export Plug-In . SVG Version: 6.00 Build 0)  -->

<svg
   xmlns:dc="http://purl.org/dc/elements/1.1/"
   xmlns:cc="http://creativecommons.org/ns#"
   xmlns:rdf="http://www.w3.org/1999/02/22-rdf-syntax-ns#"
   xmlns:svg="http://www.w3.org/2000/svg"
   xmlns="http://www.w3.org/2000/svg"
   xmlns:sodipodi="http://sodipodi.sourceforge.net/DTD/sodipodi-0.dtd"
   xmlns:inkscape="http://www.inkscape.org/namespaces/inkscape"
   version="1.1"
   x="0px"
   y="0px"
   viewBox="0 0 420.01001 124.97"
   xml:space="preserve"
   id="svg178"
   sodipodi:docname="logo-white_horizontal.svg"
   width="420.01001"
   height="124.97"
   inkscape:version="0.92.5 (2060ec1f9f, 2020-04-08)"><metadata
   id="metadata184"><rdf:RDF><cc:Work
       rdf:about=""><dc:format>image/svg+xml</dc:format><dc:type
         rdf:resource="http://purl.org/dc/dcmitype/StillImage" /><dc:title></dc:title></cc:Work></rdf:RDF></metadata><defs
   id="defs182" /><sodipodi:namedview
   pagecolor="#ffffff"
   bordercolor="#666666"
   borderopacity="1"
   objecttolerance="10"
   gridtolerance="10"
   guidetolerance="10"
   inkscape:pageopacity="0"
   inkscape:pageshadow="2"
   inkscape:window-width="1920"
   inkscape:window-height="1017"
   id="namedview180"
   showgrid="false"
   fit-margin-top="0"
   fit-margin-left="0"
   fit-margin-right="0"
   fit-margin-bottom="0"
   inkscape:zoom="1"
   inkscape:cx="-5.8227664"
   inkscape:cy="129.46175"
   inkscape:window-x="-8"
   inkscape:window-y="-8"
   inkscape:window-maximized="1"
   inkscape:current-layer="svg178" />
<style
   type="text/css"
   id="style170">
	.st0{fill:#00C8FF;}
	.st1{fill:#FFFFFF;}
</style>

<g
   id="diseño"
   transform="translate(-302,-321.46)">
	<path
   class="st1"
   d="M 332.04,325.3 302,445.48 h 34.34 l 8.58,-34.34 h 51.5 l 8.58,34.34 h 34.34 L 409.29,325.3 Z m 81.61,2.88 c 0.36,0.35 0.78,0.63 1.26,0.82 0.48,0.2 0.99,0.29 1.53,0.29 0.54,0 1.04,-0.1 1.52,-0.29 0.48,-0.2 0.89,-0.47 1.25,-0.82 0.36,-0.35 0.64,-0.77 0.85,-1.25 0.21,-0.48 0.31,-1 0.31,-1.57 0,-0.55 -0.1,-1.07 -0.31,-1.54 -0.21,-0.48 -0.49,-0.89 -0.85,-1.24 -0.36,-0.35 -0.77,-0.62 -1.25,-0.82 -0.48,-0.2 -0.98,-0.3 -1.52,-0.3 -0.54,0 -1.05,0.1 -1.53,0.3 -0.48,0.2 -0.9,0.47 -1.26,0.82 -0.36,0.35 -0.64,0.76 -0.85,1.24 -0.21,0.48 -0.31,0.99 -0.31,1.54 0,0.57 0.1,1.09 0.31,1.57 0.2,0.48 0.49,0.9 0.85,1.25 z m -0.21,-4.13 c 0.16,-0.4 0.39,-0.76 0.68,-1.05 0.29,-0.3 0.63,-0.53 1.03,-0.7 0.39,-0.17 0.82,-0.26 1.28,-0.26 0.45,0 0.88,0.09 1.27,0.26 0.39,0.17 0.73,0.41 1.02,0.7 0.29,0.3 0.52,0.65 0.68,1.05 0.16,0.41 0.25,0.84 0.25,1.31 0,0.48 -0.08,0.93 -0.25,1.34 -0.16,0.41 -0.39,0.76 -0.68,1.06 -0.29,0.3 -0.63,0.54 -1.02,0.71 -0.39,0.17 -0.81,0.26 -1.27,0.26 -0.46,0 -0.89,-0.09 -1.28,-0.26 -0.39,-0.17 -0.74,-0.41 -1.03,-0.71 -0.29,-0.3 -0.52,-0.66 -0.68,-1.06 -0.16,-0.41 -0.25,-0.85 -0.25,-1.34 0,-0.46 0.08,-0.9 0.25,-1.31 z m 2.17,1.65 h 0.75 l 1.25,1.97 h 0.77 l -1.31,-2.02 c 0.34,-0.03 0.63,-0.15 0.86,-0.34 0.23,-0.19 0.35,-0.49 0.35,-0.91 0,-0.44 -0.13,-0.77 -0.39,-0.99 -0.26,-0.22 -0.67,-0.32 -1.21,-0.32 h -1.77 v 4.58 h 0.71 v -1.97 z m 0,-2.03 h 0.94 c 0.12,0 0.24,0.01 0.36,0.03 0.12,0.02 0.23,0.05 0.32,0.1 0.09,0.05 0.17,0.12 0.23,0.21 0.06,0.09 0.09,0.21 0.09,0.37 0,0.18 -0.03,0.32 -0.1,0.42 -0.07,0.1 -0.16,0.18 -0.27,0.23 -0.11,0.05 -0.24,0.08 -0.38,0.09 -0.14,0.01 -0.3,0.02 -0.46,0.02 h -0.74 v -1.47 z m -64.26,61.72 8.58,-34.34 h 10.13 l 5.1,21.2 3.05,-10.59 h 5.84 l 5.93,23.72 H 351.35 Z M 542.79,364.45 H 531.25 V 325.3 h -12.2 v 50.54 h 23.74 z m 27.2,12.34 c 16.14,0 26.44,-11.54 26.44,-26.37 0,-14.75 -10.23,-26.08 -26.81,-26.08 -15.56,0 -26.22,11.61 -26.22,26.29 0,14.84 10.01,26.16 26.59,26.16 z m -0.15,-41.05 c 8.69,0 13.8,6.65 13.8,14.83 0,8.18 -4.75,14.83 -13.73,14.83 -8.47,0 -13.73,-6.43 -13.73,-14.83 0,-8.18 4.68,-14.83 13.66,-14.83 z m 62.94,24.84 c 0,-7.6 -3.8,-11.91 -10.45,-14.61 l -6.35,-2.48 c -3.43,-1.39 -4.6,-2.78 -4.6,-4.89 0,-2.12 1.31,-3.8 4.16,-3.8 2.85,0 4.46,2.19 4.38,5.33 h 11.25 c 0.58,-8.98 -3.8,-15.78 -15.7,-15.78 -9.86,0 -16.29,6.14 -16.29,14.97 0,6.14 2.63,11.1 7.82,13.73 2.85,1.39 5.33,2.26 7.89,3.36 3.29,1.24 5.33,2.63 5.33,5.48 0,2.92 -1.97,4.46 -4.82,4.46 -4.02,0 -5.33,-3.14 -5.11,-6.35 h -11.54 c -0.36,7.38 2.19,16.8 16.65,16.8 10.22,-0.01 17.38,-6 17.38,-16.22 z m -99.56,34.35 -17.68,50.54 h 11.98 l 4.16,-12.05 h 15.92 l 4.24,12.05 h 12.93 l -18.7,-50.54 z m 1.98,28.26 4.45,-12.78 4.46,12.78 z m 63.13,2.27 -18.99,-30.53 h -12.56 v 50.54 h 11.76 V 415.6 l 19.5,29.87 h 12.05 v -50.54 h -11.76 z m 29.98,-30.53 h -11.54 v 50.54 h 11.54 c 16.73,0 26.95,-9.64 26.95,-25.42 0,-15.85 -10.23,-25.12 -26.95,-25.12 z m 0.65,39.8 v -29.07 c 8.25,-0.07 13.58,4.75 13.58,14.46 0.01,9.87 -5.54,14.61 -13.58,14.61 z m 42.94,-9.34 h 11.39 V 414.14 H 671.9 v -7.82 h 11.76 V 394.93 H 659.7 v 50.54 h 24.18 V 434.08 H 671.9 Z m 39.66,-9.79 -6.35,-2.48 c -3.43,-1.39 -4.6,-2.78 -4.6,-4.89 0,-2.12 1.31,-3.8 4.16,-3.8 2.85,0 4.46,2.19 4.38,5.33 h 11.25 c 0.58,-8.98 -3.8,-15.78 -15.7,-15.78 -9.86,0 -16.29,6.14 -16.29,14.97 0,6.14 2.63,11.1 7.82,13.73 2.85,1.39 5.33,2.26 7.89,3.36 3.29,1.24 5.33,2.63 5.33,5.48 0,2.92 -1.97,4.46 -4.82,4.46 -4.02,0 -5.33,-3.14 -5.11,-6.35 h -11.54 c -0.36,7.38 2.19,16.8 16.65,16.8 10.23,0 17.38,-5.99 17.38,-16.21 0,-7.61 -3.8,-11.92 -10.45,-14.62 z m -236.77,29.87 h 2.55 V 325.3 h -2.55 z"
   id="path175"
   inkscape:connector-curvature="0"
   style="fill:#ffffff" />
</g>
</svg>